<svg xmlns="http://www.w3.org/2000/svg" xmlns:xlink="http://www.w3.org/1999/xlink" width="2000" zoomAndPan="magnify" viewBox="0 0 1500 749.999995" height="1000" preserveAspectRatio="xMidYMid meet" version="1.0"><defs><g/><clipPath id="73e6425f0c"><path d="M 97 166 L 481.332031 166 L 481.332031 534 L 97 534 Z M 97 166 " clip-rule="nonzero"/></clipPath><clipPath id="fa84f56a77"><path d="M 193 72.113281 L 387 72.113281 L 387 245 L 193 245 Z M 193 72.113281 " clip-rule="nonzero"/></clipPath><clipPath id="e780e3b993"><path d="M 289 279 L 543 279 L 543 588 L 289 588 Z M 289 279 " clip-rule="nonzero"/></clipPath><clipPath id="64d578a1c9"><path d="M 289.0625 315.46875 L 495.488281 279.75 L 542.582031 551.886719 L 336.15625 587.605469 Z M 289.0625 315.46875 " clip-rule="nonzero"/></clipPath><clipPath id="c6cc0b0839"><path d="M 258 321 L 531 321 L 531 558 L 258 558 Z M 258 321 " clip-rule="nonzero"/></clipPath><clipPath id="1429e0728f"><path d="M 246.101562 402.015625 L 474.589844 309.171875 L 542.691406 476.773438 L 314.203125 569.617188 Z M 246.101562 402.015625 " clip-rule="nonzero"/></clipPath><clipPath id="8bb3499f50"><path d="M 283.234375 386.925781 L 437.347656 324.304688 C 457.855469 315.972656 481.234375 325.84375 489.566406 346.351562 L 527.492188 439.6875 C 535.824219 460.195312 525.957031 483.574219 505.449219 491.90625 L 351.335938 554.527344 C 330.828125 562.859375 307.449219 552.992188 299.117188 532.484375 L 261.191406 439.148438 C 252.855469 418.640625 262.726562 395.257812 283.234375 386.925781 Z M 283.234375 386.925781 " clip-rule="nonzero"/></clipPath><clipPath id="2de7b3488a"><path d="M 166 285 L 585 285 L 585 529 L 166 529 Z M 166 285 " clip-rule="nonzero"/></clipPath><clipPath id="77ef9f30af"><path d="M 163.878906 287.246094 L 566.980469 219.527344 L 632.335938 608.578125 L 229.234375 676.292969 Z M 163.878906 287.246094 " clip-rule="nonzero"/></clipPath><clipPath id="efb0742f79"><path d="M 163.878906 287.246094 L 566.980469 219.527344 L 632.335938 608.578125 L 229.234375 676.292969 Z M 163.878906 287.246094 " clip-rule="nonzero"/></clipPath><clipPath id="9a82b00394"><path d="M 324 539 L 429 539 L 429 644 L 324 644 Z M 324 539 " clip-rule="nonzero"/></clipPath><clipPath id="981f506518"><path d="M 163.878906 287.246094 L 566.980469 219.527344 L 632.335938 608.578125 L 229.234375 676.292969 Z M 163.878906 287.246094 " clip-rule="nonzero"/></clipPath><clipPath id="64e0ee3e26"><path d="M 163.878906 287.246094 L 566.980469 219.527344 L 632.335938 608.578125 L 229.234375 676.292969 Z M 163.878906 287.246094 " clip-rule="nonzero"/></clipPath><clipPath id="96e57eb67e"><path d="M 467 515 L 572 515 L 572 620 L 467 620 Z M 467 515 " clip-rule="nonzero"/></clipPath><clipPath id="6ac8e73253"><path d="M 163.878906 287.246094 L 566.980469 219.527344 L 632.335938 608.578125 L 229.234375 676.292969 Z M 163.878906 287.246094 " clip-rule="nonzero"/></clipPath><clipPath id="d88549ce11"><path d="M 163.878906 287.246094 L 566.980469 219.527344 L 632.335938 608.578125 L 229.234375 676.292969 Z M 163.878906 287.246094 " clip-rule="nonzero"/></clipPath><clipPath id="9d2fdd0bec"><path d="M 508.878906 230.289062 L 638.226562 230.289062 L 638.226562 359.640625 L 508.878906 359.640625 Z M 508.878906 230.289062 " clip-rule="nonzero"/></clipPath><clipPath id="baa470e79a"><path d="M 573.550781 230.289062 C 537.832031 230.289062 508.878906 259.246094 508.878906 294.964844 C 508.878906 330.683594 537.832031 359.640625 573.550781 359.640625 C 609.269531 359.640625 638.226562 330.683594 638.226562 294.964844 C 638.226562 259.246094 609.269531 230.289062 573.550781 230.289062 Z M 573.550781 230.289062 " clip-rule="nonzero"/></clipPath><clipPath id="e6f670018a"><path d="M 526.257812 247.671875 L 620.847656 247.671875 L 620.847656 342.257812 L 526.257812 342.257812 Z M 526.257812 247.671875 " clip-rule="nonzero"/></clipPath><clipPath id="bf1ad5f920"><path d="M 573.550781 247.671875 C 547.433594 247.671875 526.257812 268.84375 526.257812 294.964844 C 526.257812 321.085938 547.433594 342.257812 573.550781 342.257812 C 599.671875 342.257812 620.847656 321.085938 620.847656 294.964844 C 620.847656 268.84375 599.671875 247.671875 573.550781 247.671875 Z M 573.550781 247.671875 " clip-rule="nonzero"/></clipPath><clipPath id="db95737b76"><path d="M 544 272.285156 L 603 272.285156 L 603 317 L 544 317 Z M 544 272.285156 " clip-rule="nonzero"/></clipPath></defs><g clip-path="url(#73e6425f0c)"><path fill="#053262" d="M 452.941406 533.578125 L 126.902344 533.578125 C 118.984375 533.578125 111.300781 530.277344 105.875 524.523438 C 100.429688 518.769531 97.554688 510.929688 97.996094 503.015625 L 115.164062 194.082031 C 116.011719 178.734375 128.699219 166.722656 144.066406 166.722656 L 435.773438 166.722656 C 451.144531 166.722656 463.828125 178.734375 464.679688 194.082031 L 481.84375 503.015625 C 482.289062 510.929688 479.410156 518.769531 473.964844 524.523438 C 468.523438 530.277344 460.855469 533.578125 452.941406 533.578125 Z M 144.066406 186.03125 C 138.949219 186.03125 134.703125 190.046875 134.433594 195.144531 L 117.265625 504.074219 C 117.132812 506.757812 118.058594 509.308594 119.894531 511.257812 C 121.746094 513.1875 124.21875 514.269531 126.902344 514.269531 L 452.941406 514.269531 C 455.625 514.269531 458.113281 513.1875 459.949219 511.257812 C 461.785156 509.308594 462.730469 506.757812 462.574219 504.074219 L 445.410156 195.144531 C 445.140625 190.046875 440.890625 186.03125 435.773438 186.03125 Z M 144.066406 186.03125 " fill-opacity="1" fill-rule="nonzero"/></g><g clip-path="url(#fa84f56a77)"><path fill="#053262" d="M 376.808594 244.417969 C 371.480469 244.417969 367.152344 240.09375 367.152344 234.765625 L 367.152344 168.5 C 367.152344 125.90625 332.515625 91.265625 289.921875 91.265625 C 247.328125 91.265625 212.6875 125.90625 212.6875 168.5 L 212.6875 234.765625 C 212.6875 240.09375 208.363281 244.417969 203.035156 244.417969 C 197.707031 244.417969 193.378906 240.09375 193.378906 234.765625 L 193.378906 168.5 C 193.378906 115.265625 236.6875 71.957031 289.921875 71.957031 C 343.152344 71.957031 386.460938 115.265625 386.460938 168.5 L 386.460938 234.765625 C 386.460938 240.09375 382.136719 244.417969 376.808594 244.417969 Z M 376.808594 244.417969 " fill-opacity="1" fill-rule="nonzero"/></g><g clip-path="url(#e780e3b993)"><g clip-path="url(#64d578a1c9)"><path fill="#ffffff" d="M 289.0625 315.46875 L 495.488281 279.75 L 542.511719 551.488281 L 336.085938 587.207031 Z M 289.0625 315.46875 " fill-opacity="1" fill-rule="nonzero"/></g></g><g clip-path="url(#c6cc0b0839)"><g clip-path="url(#1429e0728f)"><g clip-path="url(#8bb3499f50)"><path fill="#ffffff" d="M 246.101562 402.015625 L 474.589844 309.171875 L 542.691406 476.773438 L 314.203125 569.617188 Z M 246.101562 402.015625 " fill-opacity="1" fill-rule="nonzero"/></g></g></g><g clip-path="url(#2de7b3488a)"><g clip-path="url(#77ef9f30af)"><g clip-path="url(#efb0742f79)"><path fill="#00bf63" d="M 539.179688 299.878906 L 302.253906 339.679688 C 301.429688 339.816406 300.625 340.035156 299.84375 340.332031 C 299.0625 340.628906 298.320312 341 297.609375 341.441406 C 296.902344 341.886719 296.242188 342.394531 295.636719 342.964844 C 295.027344 343.539062 294.480469 344.167969 293.996094 344.847656 C 293.511719 345.527344 293.097656 346.25 292.753906 347.011719 C 292.410156 347.773438 292.144531 348.5625 291.957031 349.375 C 291.769531 350.191406 291.664062 351.015625 291.640625 351.851562 C 291.613281 352.6875 291.671875 353.515625 291.808594 354.339844 C 291.949219 355.164062 292.164062 355.96875 292.460938 356.75 C 292.757812 357.53125 293.128906 358.273438 293.570312 358.984375 C 294.015625 359.691406 294.523438 360.351562 295.097656 360.957031 C 295.667969 361.566406 296.296875 362.113281 296.976562 362.597656 C 297.65625 363.082031 298.378906 363.496094 299.140625 363.839844 C 299.902344 364.183594 300.691406 364.449219 301.507812 364.636719 C 302.320312 364.824219 303.144531 364.929688 303.980469 364.953125 C 304.816406 364.980469 305.644531 364.921875 306.46875 364.785156 L 543.398438 324.984375 C 543.976562 324.882812 544.558594 324.824219 545.144531 324.800781 C 545.730469 324.777344 546.316406 324.789062 546.902344 324.84375 C 547.488281 324.894531 548.066406 324.980469 548.640625 325.105469 C 549.214844 325.230469 549.777344 325.390625 550.332031 325.589844 C 550.882812 325.785156 551.421875 326.015625 551.945312 326.28125 C 552.46875 326.546875 552.976562 326.84375 553.460938 327.175781 C 553.945312 327.503906 554.410156 327.863281 554.847656 328.253906 C 555.289062 328.640625 555.703125 329.058594 556.089844 329.5 C 556.476562 329.941406 556.835938 330.40625 557.160156 330.890625 C 557.488281 331.378906 557.785156 331.882812 558.050781 332.410156 C 558.3125 332.933594 558.542969 333.472656 558.734375 334.027344 C 558.929688 334.582031 559.089844 335.144531 559.210938 335.71875 C 559.335938 336.292969 559.421875 336.875 559.46875 337.457031 C 559.519531 338.042969 559.53125 338.628906 559.503906 339.214844 C 559.476562 339.800781 559.414062 340.386719 559.316406 340.964844 C 559.214844 341.542969 559.078125 342.113281 558.90625 342.671875 C 549.398438 373.875 539.703125 441.539062 532.90625 463.699219 C 532.53125 464.925781 531.996094 466.078125 531.296875 467.15625 C 530.601562 468.234375 529.769531 469.195312 528.804688 470.042969 C 527.839844 470.886719 526.777344 471.585938 525.617188 472.136719 C 524.457031 472.6875 523.246094 473.066406 521.980469 473.277344 L 347.554688 502.582031 C 346.875 502.695312 346.191406 502.757812 345.5 502.773438 C 344.8125 502.785156 344.125 502.746094 343.441406 502.65625 C 342.757812 502.566406 342.085938 502.425781 341.421875 502.234375 C 340.757812 502.042969 340.113281 501.804688 339.488281 501.519531 C 338.859375 501.230469 338.257812 500.898438 337.683594 500.523438 C 337.105469 500.144531 336.558594 499.726562 336.042969 499.269531 C 335.527344 498.808594 335.050781 498.316406 334.609375 497.785156 C 334.167969 497.253906 333.769531 496.695312 333.414062 496.105469 C 333.390625 495.960938 264.585938 326.535156 264.585938 326.535156 C 263.890625 324.816406 263.125 323.128906 262.285156 321.472656 C 261.445312 319.816406 260.539062 318.199219 259.5625 316.621094 C 258.585938 315.039062 257.546875 313.503906 256.441406 312.015625 C 255.335938 310.523438 254.171875 309.082031 252.941406 307.691406 C 251.714844 306.296875 250.433594 304.960938 249.089844 303.675781 C 247.75 302.390625 246.359375 301.167969 244.914062 300 C 243.46875 298.835938 241.980469 297.730469 240.441406 296.691406 C 238.90625 295.652344 237.328125 294.679688 235.707031 293.773438 C 234.085938 292.867188 232.433594 292.03125 230.742188 291.261719 C 229.050781 290.496094 227.332031 289.804688 225.582031 289.183594 C 223.832031 288.5625 222.058594 288.015625 220.265625 287.546875 C 218.46875 287.074219 216.65625 286.679688 214.828125 286.363281 C 213 286.042969 211.160156 285.804688 209.3125 285.644531 C 207.464844 285.480469 205.609375 285.398438 203.753906 285.390625 C 201.898438 285.386719 200.046875 285.460938 198.195312 285.609375 C 196.347656 285.761719 194.507812 285.992188 192.675781 286.296875 L 177.082031 288.917969 C 176.660156 288.96875 176.246094 289.039062 175.832031 289.136719 C 175.421875 289.230469 175.015625 289.34375 174.613281 289.480469 C 174.210938 289.617188 173.820312 289.773438 173.4375 289.949219 C 173.050781 290.128906 172.675781 290.324219 172.3125 290.539062 C 171.949219 290.757812 171.597656 290.992188 171.257812 291.246094 C 170.917969 291.496094 170.59375 291.765625 170.28125 292.054688 C 169.972656 292.339844 169.675781 292.640625 169.394531 292.960938 C 169.117188 293.277344 168.855469 293.609375 168.609375 293.953125 C 168.363281 294.296875 168.136719 294.65625 167.929688 295.023438 C 167.71875 295.390625 167.53125 295.769531 167.363281 296.15625 C 167.195312 296.546875 167.046875 296.941406 166.917969 297.34375 C 166.789062 297.75 166.683594 298.15625 166.597656 298.574219 C 166.515625 298.988281 166.449219 299.40625 166.410156 299.828125 C 166.367188 300.246094 166.347656 300.667969 166.351562 301.09375 C 166.355469 301.515625 166.378906 301.9375 166.425781 302.359375 C 166.472656 302.777344 166.539062 303.195312 166.628906 303.609375 C 166.769531 304.433594 166.988281 305.234375 167.285156 306.015625 C 167.582031 306.796875 167.953125 307.539062 168.398438 308.246094 C 168.84375 308.953125 169.351562 309.613281 169.921875 310.21875 C 170.496094 310.828125 171.125 311.375 171.804688 311.859375 C 172.484375 312.34375 173.203125 312.757812 173.964844 313.097656 C 174.726562 313.441406 175.515625 313.707031 176.328125 313.894531 C 177.144531 314.085938 177.96875 314.191406 178.800781 314.21875 C 179.636719 314.246094 180.464844 314.191406 181.289062 314.054688 L 196.898438 311.429688 C 198.019531 311.242188 199.144531 311.101562 200.277344 311.007812 C 201.414062 310.914062 202.546875 310.871094 203.683594 310.871094 C 204.820312 310.875 205.957031 310.925781 207.089844 311.023438 C 208.222656 311.121094 209.347656 311.269531 210.46875 311.460938 C 211.589844 311.65625 212.699219 311.894531 213.800781 312.183594 C 214.898438 312.46875 215.984375 312.804688 217.058594 313.183594 C 218.128906 313.5625 219.183594 313.984375 220.21875 314.453125 C 221.257812 314.921875 222.269531 315.433594 223.265625 315.988281 C 224.257812 316.542969 225.222656 317.136719 226.167969 317.773438 C 227.109375 318.40625 228.023438 319.082031 228.910156 319.796875 C 229.796875 320.507812 230.648438 321.257812 231.472656 322.042969 C 232.292969 322.828125 233.082031 323.648438 233.835938 324.5 C 234.589844 325.351562 235.304688 326.234375 235.984375 327.144531 C 236.660156 328.058594 237.300781 328.996094 237.898438 329.960938 C 238.5 330.929688 239.054688 331.917969 239.574219 332.933594 C 240.089844 333.945312 240.558594 334.980469 240.988281 336.03125 L 310.035156 506.199219 C 310.203125 506.582031 310.390625 506.996094 310.585938 507.375 C 311.546875 509.183594 312.640625 510.90625 313.871094 512.542969 C 315.101562 514.179688 316.453125 515.710938 317.921875 517.136719 C 319.390625 518.5625 320.960938 519.867188 322.636719 521.046875 C 324.308594 522.226562 326.0625 523.269531 327.902344 524.175781 C 329.738281 525.082031 331.632812 525.839844 333.589844 526.449219 C 335.542969 527.058594 337.535156 527.511719 339.558594 527.808594 C 341.585938 528.105469 343.625 528.246094 345.671875 528.222656 C 347.71875 528.203125 349.753906 528.023438 351.773438 527.683594 L 526.195312 498.382812 C 527.984375 498.082031 529.746094 497.660156 531.476562 497.113281 C 533.207031 496.570312 534.894531 495.90625 536.535156 495.128906 C 538.171875 494.351562 539.75 493.464844 541.265625 492.464844 C 542.785156 491.46875 544.222656 490.371094 545.589844 489.175781 C 546.953125 487.976562 548.226562 486.691406 549.414062 485.320312 C 550.601562 483.945312 551.6875 482.496094 552.671875 480.972656 C 553.65625 479.449219 554.53125 477.863281 555.296875 476.21875 C 556.0625 474.570312 556.710938 472.882812 557.242188 471.144531 C 564.023438 448.988281 573.679688 381.359375 583.242188 350.121094 C 583.484375 349.324219 583.703125 348.519531 583.894531 347.710938 C 584.089844 346.898438 584.257812 346.085938 584.398438 345.265625 C 584.539062 344.445312 584.652344 343.621094 584.742188 342.792969 C 584.832031 341.964844 584.894531 341.132812 584.929688 340.300781 C 584.964844 339.46875 584.972656 338.636719 584.957031 337.804688 C 584.941406 336.972656 584.898438 336.140625 584.828125 335.3125 C 584.757812 334.480469 584.660156 333.65625 584.539062 332.832031 C 584.414062 332.007812 584.265625 331.1875 584.09375 330.375 C 583.917969 329.558594 583.71875 328.75 583.492188 327.949219 C 583.265625 327.148438 583.015625 326.355469 582.738281 325.570312 C 582.460938 324.785156 582.160156 324.007812 581.832031 323.242188 C 581.507812 322.476562 581.160156 321.71875 580.785156 320.976562 C 580.410156 320.234375 580.011719 319.5 579.59375 318.78125 C 579.171875 318.0625 578.730469 317.359375 578.265625 316.667969 C 577.800781 315.976562 577.3125 315.300781 576.804688 314.640625 C 576.296875 313.984375 575.769531 313.339844 575.21875 312.714844 C 574.667969 312.085938 574.101562 311.480469 573.511719 310.890625 C 572.925781 310.300781 572.320312 309.730469 571.695312 309.179688 C 571.070312 308.625 570.429688 308.09375 569.773438 307.585938 C 569.113281 307.074219 568.441406 306.585938 567.753906 306.117188 C 567.0625 305.648438 566.359375 305.203125 565.644531 304.78125 C 564.925781 304.359375 564.195312 303.957031 563.453125 303.582031 C 562.710938 303.203125 561.957031 302.851562 561.191406 302.523438 C 560.425781 302.195312 559.652344 301.890625 558.867188 301.613281 C 558.082031 301.332031 557.289062 301.078125 556.488281 300.847656 C 555.6875 300.621094 554.882812 300.417969 554.070312 300.238281 C 553.253906 300.0625 552.4375 299.910156 551.613281 299.785156 C 550.789062 299.660156 549.964844 299.558594 549.132812 299.484375 C 548.304688 299.414062 547.472656 299.367188 546.640625 299.347656 C 545.808594 299.328125 544.976562 299.332031 544.144531 299.367188 C 543.3125 299.398438 542.480469 299.457031 541.652344 299.542969 C 540.824219 299.628906 540 299.742188 539.179688 299.878906 Z M 539.179688 299.878906 " fill-opacity="1" fill-rule="evenodd"/></g></g></g><g clip-path="url(#9a82b00394)"><g clip-path="url(#981f506518)"><g clip-path="url(#64e0ee3e26)"><path fill="#00bf63" d="M 367.886719 540.109375 C 366.207031 540.394531 364.546875 540.757812 362.902344 541.203125 C 361.257812 541.648438 359.640625 542.171875 358.046875 542.777344 C 356.453125 543.382812 354.894531 544.0625 353.371094 544.820312 C 351.84375 545.578125 350.359375 546.410156 348.914062 547.3125 C 347.472656 548.214844 346.074219 549.1875 344.726562 550.226562 C 343.378906 551.269531 342.085938 552.375 340.84375 553.542969 C 339.605469 554.710938 338.425781 555.933594 337.304688 557.21875 C 336.1875 558.503906 335.132812 559.839844 334.144531 561.226562 C 333.15625 562.613281 332.238281 564.046875 331.390625 565.523438 C 330.542969 567 329.773438 568.515625 329.074219 570.070312 C 328.375 571.621094 327.753906 573.207031 327.210938 574.820312 C 326.667969 576.433594 326.207031 578.074219 325.824219 579.730469 C 325.441406 581.390625 325.140625 583.066406 324.925781 584.757812 C 324.707031 586.445312 324.574219 588.140625 324.523438 589.84375 C 324.472656 591.546875 324.503906 593.246094 324.621094 594.945312 C 324.738281 596.644531 324.9375 598.335938 325.21875 600.015625 C 325.5 601.695312 325.863281 603.355469 326.308594 605 C 326.757812 606.644531 327.28125 608.261719 327.886719 609.855469 C 328.492188 611.445312 329.171875 613.007812 329.929688 614.53125 C 330.6875 616.058594 331.519531 617.542969 332.421875 618.984375 C 333.324219 620.429688 334.296875 621.824219 335.339844 623.171875 C 336.378906 624.519531 337.484375 625.816406 338.652344 627.054688 C 339.820312 628.292969 341.046875 629.472656 342.328125 630.59375 C 343.613281 631.714844 344.949219 632.765625 346.335938 633.753906 C 347.722656 634.742188 349.15625 635.660156 350.632812 636.507812 C 352.113281 637.355469 353.625 638.128906 355.179688 638.824219 C 356.734375 639.523438 358.316406 640.144531 359.933594 640.6875 C 361.546875 641.230469 363.183594 641.691406 364.84375 642.074219 C 366.503906 642.457031 368.179688 642.753906 369.867188 642.972656 C 371.558594 643.191406 373.253906 643.324219 374.957031 643.375 C 376.65625 643.425781 378.359375 643.394531 380.058594 643.277344 C 381.757812 643.160156 383.445312 642.960938 385.125 642.675781 C 386.804688 642.394531 388.46875 642.03125 390.113281 641.585938 C 391.757812 641.140625 393.375 640.613281 394.964844 640.007812 C 396.558594 639.40625 398.117188 638.722656 399.644531 637.964844 C 401.167969 637.207031 402.652344 636.375 404.097656 635.472656 C 405.539062 634.570312 406.9375 633.597656 408.285156 632.554688 C 409.632812 631.515625 410.925781 630.410156 412.164062 629.242188 C 413.40625 628.074219 414.585938 626.847656 415.703125 625.5625 C 416.824219 624.28125 417.875 622.945312 418.863281 621.558594 C 419.851562 620.167969 420.769531 618.738281 421.617188 617.257812 C 422.464844 615.78125 423.238281 614.265625 423.933594 612.710938 C 424.632812 611.160156 425.253906 609.574219 425.796875 607.960938 C 426.339844 606.34375 426.800781 604.707031 427.183594 603.046875 C 427.5625 601.386719 427.863281 599.714844 428.082031 598.023438 C 428.296875 596.335938 428.429688 594.640625 428.480469 592.9375 C 428.53125 591.234375 428.5 589.53125 428.382812 587.832031 C 428.265625 586.132812 428.066406 584.445312 427.785156 582.765625 C 427.5 581.085938 427.136719 579.425781 426.6875 577.78125 C 426.242188 576.140625 425.714844 574.523438 425.109375 572.929688 C 424.507812 571.339844 423.824219 569.78125 423.066406 568.257812 C 422.308594 566.734375 421.476562 565.25 420.574219 563.804688 C 419.667969 562.363281 418.695312 560.96875 417.65625 559.621094 C 416.613281 558.273438 415.511719 556.980469 414.34375 555.742188 C 413.175781 554.503906 411.949219 553.324219 410.667969 552.203125 C 409.382812 551.085938 408.046875 550.03125 406.660156 549.046875 C 405.273438 548.058594 403.84375 547.140625 402.363281 546.292969 C 400.886719 545.445312 399.375 544.671875 397.820312 543.976562 C 396.269531 543.277344 394.683594 542.65625 393.070312 542.113281 C 391.457031 541.570312 389.820312 541.109375 388.160156 540.726562 C 386.503906 540.34375 384.828125 540.042969 383.140625 539.824219 C 381.453125 539.605469 379.757812 539.472656 378.054688 539.421875 C 376.351562 539.367188 374.652344 539.402344 372.953125 539.515625 C 371.253906 539.632812 369.566406 539.828125 367.886719 540.109375 Z M 380.898438 617.574219 C 380.042969 617.71875 379.179688 617.820312 378.3125 617.878906 C 377.445312 617.9375 376.578125 617.957031 375.707031 617.929688 C 374.839844 617.902344 373.972656 617.835938 373.113281 617.722656 C 372.25 617.613281 371.394531 617.460938 370.546875 617.265625 C 369.699219 617.070312 368.863281 616.835938 368.039062 616.558594 C 367.21875 616.28125 366.410156 615.964844 365.617188 615.605469 C 364.824219 615.25 364.050781 614.855469 363.296875 614.421875 C 362.539062 613.992188 361.808594 613.523438 361.101562 613.019531 C 360.394531 612.515625 359.710938 611.976562 359.054688 611.40625 C 358.402344 610.832031 357.777344 610.230469 357.179688 609.597656 C 356.582031 608.964844 356.019531 608.304688 355.488281 607.617188 C 354.957031 606.929688 354.460938 606.21875 354 605.480469 C 353.539062 604.742188 353.113281 603.984375 352.726562 603.207031 C 352.339844 602.429688 351.992188 601.632812 351.683594 600.820312 C 351.375 600.007812 351.109375 599.179688 350.878906 598.34375 C 350.652344 597.503906 350.46875 596.65625 350.324219 595.796875 C 350.179688 594.941406 350.078125 594.078125 350.015625 593.210938 C 349.957031 592.34375 349.941406 591.476562 349.96875 590.605469 C 349.992188 589.738281 350.0625 588.871094 350.171875 588.007812 C 350.28125 587.148438 350.4375 586.292969 350.628906 585.445312 C 350.824219 584.597656 351.0625 583.761719 351.339844 582.9375 C 351.613281 582.113281 351.929688 581.304688 352.289062 580.511719 C 352.644531 579.71875 353.039062 578.945312 353.472656 578.191406 C 353.902344 577.4375 354.371094 576.707031 354.875 576 C 355.378906 575.289062 355.917969 574.609375 356.488281 573.953125 C 357.058594 573.296875 357.660156 572.671875 358.292969 572.074219 C 358.925781 571.480469 359.585938 570.914062 360.277344 570.382812 C 360.964844 569.851562 361.675781 569.355469 362.414062 568.894531 C 363.148438 568.433594 363.90625 568.007812 364.6875 567.621094 C 365.464844 567.234375 366.261719 566.886719 367.074219 566.578125 C 367.886719 566.269531 368.710938 566.003906 369.550781 565.773438 C 370.390625 565.546875 371.238281 565.359375 372.09375 565.214844 C 372.953125 565.070312 373.8125 564.96875 374.679688 564.910156 C 375.546875 564.851562 376.417969 564.835938 377.285156 564.859375 C 378.15625 564.886719 379.019531 564.953125 379.882812 565.0625 C 380.746094 565.175781 381.601562 565.328125 382.445312 565.523438 C 383.292969 565.71875 384.128906 565.953125 384.953125 566.230469 C 385.777344 566.507812 386.585938 566.824219 387.378906 567.179688 C 388.171875 567.535156 388.945312 567.929688 389.699219 568.363281 C 390.453125 568.792969 391.1875 569.261719 391.894531 569.765625 C 392.601562 570.269531 393.285156 570.808594 393.941406 571.378906 C 394.59375 571.949219 395.222656 572.550781 395.816406 573.183594 C 396.414062 573.816406 396.976562 574.476562 397.507812 575.164062 C 398.042969 575.851562 398.539062 576.566406 399 577.300781 C 399.460938 578.039062 399.886719 578.796875 400.273438 579.574219 C 400.660156 580.351562 401.007812 581.148438 401.316406 581.960938 C 401.625 582.773438 401.894531 583.597656 402.121094 584.4375 C 402.347656 585.277344 402.535156 586.125 402.679688 586.984375 C 402.824219 587.839844 402.925781 588.703125 402.984375 589.570312 C 403.042969 590.4375 403.058594 591.304688 403.03125 592.175781 C 403.007812 593.042969 402.9375 593.910156 402.824219 594.773438 C 402.714844 595.632812 402.5625 596.488281 402.367188 597.335938 C 402.171875 598.183594 401.933594 599.019531 401.65625 599.84375 C 401.378906 600.667969 401.0625 601.476562 400.707031 602.269531 C 400.351562 603.0625 399.957031 603.835938 399.523438 604.589844 C 399.089844 605.34375 398.621094 606.074219 398.117188 606.785156 C 397.613281 607.492188 397.078125 608.175781 396.503906 608.832031 C 395.933594 609.484375 395.332031 610.113281 394.699219 610.707031 C 394.066406 611.304688 393.40625 611.867188 392.71875 612.398438 C 392.03125 612.933594 391.316406 613.429688 390.582031 613.890625 C 389.84375 614.351562 389.085938 614.777344 388.308594 615.164062 C 387.53125 615.550781 386.734375 615.898438 385.921875 616.210938 C 385.109375 616.519531 384.285156 616.785156 383.445312 617.015625 C 382.605469 617.242188 381.757812 617.429688 380.898438 617.574219 Z M 380.898438 617.574219 " fill-opacity="1" fill-rule="evenodd"/></g></g></g><g clip-path="url(#96e57eb67e)"><g clip-path="url(#6ac8e73253)"><g clip-path="url(#d88549ce11)"><path fill="#00bf63" d="M 510.824219 516.097656 C 509.144531 516.382812 507.480469 516.746094 505.835938 517.191406 C 504.195312 517.636719 502.574219 518.160156 500.984375 518.765625 C 499.390625 519.371094 497.832031 520.050781 496.304688 520.808594 C 494.78125 521.566406 493.296875 522.398438 491.851562 523.300781 C 490.410156 524.203125 489.011719 525.175781 487.664062 526.214844 C 486.316406 527.257812 485.019531 528.363281 483.78125 529.53125 C 482.542969 530.699219 481.363281 531.921875 480.242188 533.207031 C 479.125 534.492188 478.070312 535.828125 477.082031 537.214844 C 476.09375 538.601562 475.175781 540.035156 474.328125 541.511719 C 473.480469 542.988281 472.707031 544.503906 472.007812 546.058594 C 471.3125 547.609375 470.691406 549.195312 470.148438 550.808594 C 469.605469 552.421875 469.140625 554.0625 468.761719 555.71875 C 468.378906 557.378906 468.078125 559.054688 467.859375 560.746094 C 467.644531 562.433594 467.507812 564.128906 467.457031 565.832031 C 467.40625 567.535156 467.441406 569.234375 467.558594 570.933594 C 467.671875 572.632812 467.871094 574.324219 468.15625 576.003906 C 468.4375 577.683594 468.800781 579.34375 469.246094 580.988281 C 469.691406 582.632812 470.21875 584.25 470.820312 585.84375 C 471.425781 587.433594 472.109375 588.996094 472.867188 590.519531 C 473.625 592.046875 474.453125 593.53125 475.359375 594.972656 C 476.261719 596.417969 477.234375 597.8125 478.273438 599.160156 C 479.316406 600.511719 480.417969 601.804688 481.585938 603.042969 C 482.753906 604.28125 483.980469 605.460938 485.265625 606.582031 C 486.550781 607.703125 487.886719 608.753906 489.273438 609.742188 C 490.660156 610.730469 492.09375 611.648438 493.570312 612.496094 C 495.046875 613.34375 496.5625 614.117188 498.117188 614.8125 C 499.671875 615.511719 501.253906 616.132812 502.867188 616.675781 C 504.484375 617.21875 506.121094 617.679688 507.78125 618.0625 C 509.441406 618.445312 511.113281 618.742188 512.804688 618.960938 C 514.492188 619.179688 516.1875 619.3125 517.890625 619.363281 C 519.59375 619.414062 521.296875 619.382812 522.996094 619.265625 C 524.695312 619.148438 526.382812 618.949219 528.0625 618.667969 C 529.742188 618.382812 531.40625 618.019531 533.046875 617.574219 C 534.691406 617.128906 536.308594 616.601562 537.902344 615.996094 C 539.496094 615.394531 541.054688 614.710938 542.578125 613.953125 C 544.105469 613.195312 545.589844 612.363281 547.03125 611.460938 C 548.476562 610.558594 549.871094 609.585938 551.21875 608.542969 C 552.566406 607.503906 553.863281 606.398438 555.101562 605.230469 C 556.339844 604.0625 557.519531 602.835938 558.640625 601.550781 C 559.757812 600.269531 560.8125 598.933594 561.800781 597.546875 C 562.789062 596.15625 563.707031 594.726562 564.554688 593.246094 C 565.398438 591.769531 566.171875 590.253906 566.871094 588.699219 C 567.570312 587.148438 568.191406 585.5625 568.730469 583.949219 C 569.273438 582.332031 569.738281 580.695312 570.117188 579.035156 C 570.5 577.375 570.800781 575.703125 571.015625 574.011719 C 571.234375 572.324219 571.367188 570.628906 571.417969 568.925781 C 571.46875 567.222656 571.4375 565.523438 571.320312 563.820312 C 571.203125 562.121094 571.003906 560.433594 570.71875 558.753906 C 570.4375 557.074219 570.074219 555.414062 569.625 553.769531 C 569.179688 552.128906 568.65625 550.511719 568.050781 548.917969 C 567.445312 547.328125 566.761719 545.769531 566.003906 544.242188 C 565.246094 542.71875 564.417969 541.234375 563.511719 539.792969 C 562.609375 538.347656 561.636719 536.953125 560.597656 535.605469 C 559.554688 534.257812 558.449219 532.964844 557.28125 531.726562 C 556.117188 530.488281 554.890625 529.308594 553.605469 528.1875 C 552.324219 527.070312 550.988281 526.015625 549.601562 525.027344 C 548.214844 524.042969 546.78125 523.125 545.304688 522.277344 C 543.828125 521.429688 542.3125 520.65625 540.757812 519.957031 C 539.207031 519.261719 537.621094 518.640625 536.007812 518.097656 C 534.394531 517.554688 532.757812 517.089844 531.097656 516.710938 C 529.441406 516.328125 527.765625 516.027344 526.078125 515.808594 C 524.386719 515.59375 522.691406 515.457031 520.992188 515.40625 C 519.289062 515.355469 517.589844 515.386719 515.890625 515.503906 C 514.191406 515.617188 512.503906 515.816406 510.824219 516.097656 Z M 523.835938 593.5625 C 522.980469 593.707031 522.117188 593.808594 521.25 593.867188 C 520.382812 593.929688 519.515625 593.945312 518.644531 593.917969 C 517.777344 593.890625 516.910156 593.824219 516.046875 593.714844 C 515.1875 593.601562 514.332031 593.449219 513.484375 593.253906 C 512.636719 593.058594 511.800781 592.824219 510.976562 592.546875 C 510.152344 592.269531 509.34375 591.953125 508.550781 591.59375 C 507.757812 591.238281 506.984375 590.84375 506.230469 590.410156 C 505.476562 589.980469 504.746094 589.511719 504.039062 589.007812 C 503.328125 588.503906 502.648438 587.964844 501.992188 587.394531 C 501.335938 586.820312 500.710938 586.21875 500.117188 585.585938 C 499.519531 584.953125 498.957031 584.292969 498.425781 583.605469 C 497.894531 582.917969 497.398438 582.207031 496.9375 581.46875 C 496.476562 580.730469 496.050781 579.972656 495.664062 579.195312 C 495.277344 578.417969 494.929688 577.621094 494.621094 576.808594 C 494.3125 575.996094 494.042969 575.167969 493.816406 574.332031 C 493.589844 573.492188 493.402344 572.644531 493.257812 571.785156 C 493.113281 570.929688 493.011719 570.066406 492.953125 569.199219 C 492.894531 568.332031 492.878906 567.464844 492.902344 566.59375 C 492.929688 565.726562 492.996094 564.859375 493.109375 563.996094 C 493.21875 563.136719 493.371094 562.28125 493.566406 561.433594 C 493.761719 560.585938 493.996094 559.75 494.273438 558.925781 C 494.550781 558.101562 494.867188 557.292969 495.222656 556.5 C 495.582031 555.707031 495.976562 554.933594 496.40625 554.179688 C 496.839844 553.425781 497.308594 552.695312 497.8125 551.988281 C 498.316406 551.277344 498.855469 550.597656 499.425781 549.941406 C 499.996094 549.285156 500.597656 548.660156 501.230469 548.0625 C 501.863281 547.46875 502.523438 546.902344 503.210938 546.371094 C 503.898438 545.839844 504.613281 545.34375 505.347656 544.882812 C 506.085938 544.421875 506.84375 544 507.621094 543.609375 C 508.402344 543.222656 509.195312 542.875 510.007812 542.566406 C 510.820312 542.257812 511.648438 541.992188 512.484375 541.761719 C 513.324219 541.535156 514.171875 541.347656 515.03125 541.203125 C 515.886719 541.0625 516.75 540.957031 517.617188 540.898438 C 518.484375 540.839844 519.351562 540.824219 520.222656 540.847656 C 521.089844 540.875 521.957031 540.941406 522.820312 541.050781 C 523.679688 541.164062 524.535156 541.316406 525.382812 541.511719 C 526.230469 541.707031 527.066406 541.941406 527.890625 542.21875 C 528.714844 542.496094 529.523438 542.8125 530.316406 543.167969 C 531.109375 543.523438 531.882812 543.917969 532.636719 544.351562 C 533.390625 544.78125 534.121094 545.25 534.832031 545.753906 C 535.539062 546.257812 536.222656 546.796875 536.875 547.367188 C 537.53125 547.9375 538.15625 548.539062 538.753906 549.171875 C 539.351562 549.804688 539.914062 550.464844 540.445312 551.152344 C 540.976562 551.839844 541.472656 552.554688 541.933594 553.289062 C 542.398438 554.027344 542.820312 554.785156 543.207031 555.5625 C 543.59375 556.339844 543.941406 557.136719 544.253906 557.949219 C 544.5625 558.761719 544.828125 559.585938 545.058594 560.425781 C 545.285156 561.265625 545.472656 562.113281 545.617188 562.972656 C 545.757812 563.828125 545.859375 564.691406 545.917969 565.558594 C 545.980469 566.425781 545.996094 567.292969 545.96875 568.164062 C 545.941406 569.03125 545.875 569.898438 545.761719 570.761719 C 545.652344 571.621094 545.496094 572.476562 545.300781 573.324219 C 545.105469 574.171875 544.871094 575.007812 544.59375 575.832031 C 544.316406 576.65625 544 577.464844 543.644531 578.257812 C 543.285156 579.050781 542.890625 579.824219 542.460938 580.578125 C 542.027344 581.332031 541.558594 582.0625 541.054688 582.773438 C 540.550781 583.480469 540.011719 584.164062 539.441406 584.820312 C 538.871094 585.472656 538.269531 586.101562 537.636719 586.695312 C 537.003906 587.292969 536.34375 587.855469 535.65625 588.390625 C 534.964844 588.921875 534.253906 589.417969 533.515625 589.878906 C 532.78125 590.339844 532.023438 590.765625 531.246094 591.152344 C 530.464844 591.539062 529.671875 591.886719 528.859375 592.199219 C 528.046875 592.507812 527.21875 592.777344 526.378906 593.003906 C 525.542969 593.230469 524.695312 593.417969 523.835938 593.5625 Z M 523.835938 593.5625 " fill-opacity="1" fill-rule="evenodd"/></g></g></g><g clip-path="url(#9d2fdd0bec)"><g clip-path="url(#baa470e79a)"><path fill="#ffffff" d="M 508.878906 230.289062 L 638.226562 230.289062 L 638.226562 359.640625 L 508.878906 359.640625 Z M 508.878906 230.289062 " fill-opacity="1" fill-rule="nonzero"/></g></g><g clip-path="url(#e6f670018a)"><g clip-path="url(#bf1ad5f920)"><path fill="#00bf63" d="M 526.257812 247.671875 L 620.847656 247.671875 L 620.847656 342.257812 L 526.257812 342.257812 Z M 526.257812 247.671875 " fill-opacity="1" fill-rule="nonzero"/></g></g><g clip-path="url(#db95737b76)"><path fill="#ffffff" d="M 598.949219 272.308594 C 598.023438 272.335938 597.238281 272.683594 596.59375 273.347656 L 561.328125 308.613281 L 550.046875 297.328125 C 549.726562 296.996094 549.355469 296.742188 548.933594 296.558594 C 548.511719 296.375 548.070312 296.28125 547.609375 296.277344 C 547.148438 296.273438 546.707031 296.355469 546.28125 296.53125 C 545.851562 296.703125 545.476562 296.953125 545.152344 297.28125 C 544.824219 297.605469 544.578125 297.980469 544.402344 298.40625 C 544.226562 298.835938 544.144531 299.277344 544.148438 299.738281 C 544.152344 300.199219 544.246094 300.640625 544.429688 301.0625 C 544.613281 301.484375 544.871094 301.855469 545.203125 302.175781 L 558.90625 315.878906 C 559.226562 316.199219 559.597656 316.449219 560.015625 316.621094 C 560.4375 316.796875 560.875 316.882812 561.328125 316.882812 C 561.78125 316.882812 562.21875 316.796875 562.640625 316.621094 C 563.058594 316.449219 563.429688 316.199219 563.75 315.878906 L 601.4375 278.191406 C 601.6875 277.949219 601.894531 277.679688 602.058594 277.375 C 602.222656 277.074219 602.339844 276.753906 602.410156 276.414062 C 602.476562 276.074219 602.496094 275.734375 602.460938 275.390625 C 602.425781 275.046875 602.339844 274.71875 602.207031 274.398438 C 602.070312 274.082031 601.894531 273.789062 601.671875 273.527344 C 601.449219 273.261719 601.191406 273.039062 600.902344 272.851562 C 600.609375 272.664062 600.296875 272.523438 599.964844 272.433594 C 599.632812 272.339844 599.292969 272.300781 598.949219 272.308594 Z M 598.949219 272.308594 " fill-opacity="1" fill-rule="nonzero"/></g><g fill="#053262" fill-opacity="1"><g transform="translate(656.68024, 325.983857)"><g><path d="M 45.15625 -167.460938 L 45.15625 -104.832031 L 113.433594 -104.832031 L 113.433594 -84.671875 L 45.15625 -84.671875 L 45.15625 -20.160156 L 121.496094 -20.160156 L 121.496094 0 L 20.695312 0 L 20.695312 -187.621094 L 121.496094 -187.621094 L 121.496094 -167.460938 Z M 45.15625 -167.460938 "/></g></g></g><g fill="#053262" fill-opacity="1"><g transform="translate(794.571104, 325.983857)"><g><path d="M 131.441406 -41.664062 L 49.726562 -41.664062 L 34.675781 0 L 8.871094 0 L 76.605469 -186.273438 L 104.832031 -186.273438 L 172.296875 0 L 146.492188 0 Z M 124.453125 -61.554688 L 90.585938 -156.171875 L 56.714844 -61.554688 Z M 124.453125 -61.554688 "/></g></g></g><g fill="#053262" fill-opacity="1"><g transform="translate(975.737671, 325.983857)"><g><path d="M 80.101562 1.882812 C 67.738281 1.882812 56.671875 -0.3125 46.90625 -4.703125 C 37.136719 -9.09375 29.476562 -15.1875 23.921875 -22.980469 C 18.367188 -30.777344 15.5 -39.78125 15.320312 -49.996094 L 41.394531 -49.996094 C 42.289062 -41.214844 45.917969 -33.824219 52.28125 -27.820312 C 58.640625 -21.816406 67.914062 -18.816406 80.101562 -18.816406 C 91.75 -18.816406 100.933594 -21.726562 107.652344 -27.550781 C 114.371094 -33.375 117.730469 -40.855469 117.730469 -49.996094 C 117.730469 -57.164062 115.761719 -62.988281 111.820312 -67.46875 C 107.875 -71.949219 102.949219 -75.351562 97.035156 -77.683594 C 91.121094 -80.011719 83.148438 -82.519531 73.113281 -85.207031 C 60.746094 -88.433594 50.847656 -91.660156 43.410156 -94.886719 C 35.972656 -98.109375 29.613281 -103.171875 24.324219 -110.070312 C 19.039062 -116.972656 16.398438 -126.246094 16.398438 -137.890625 C 16.398438 -148.105469 18.996094 -157.15625 24.191406 -165.039062 C 29.386719 -172.925781 36.691406 -179.019531 46.097656 -183.320312 C 55.507812 -187.621094 66.304688 -189.769531 78.488281 -189.769531 C 96.050781 -189.769531 110.429688 -185.378906 121.628906 -176.597656 C 132.828125 -167.816406 139.144531 -156.171875 140.578125 -141.65625 L 113.699219 -141.65625 C 112.804688 -148.824219 109.042969 -155.140625 102.410156 -160.605469 C 95.78125 -166.070312 87 -168.804688 76.070312 -168.804688 C 65.855469 -168.804688 57.523438 -166.160156 51.070312 -160.875 C 44.621094 -155.585938 41.394531 -148.195312 41.394531 -138.699219 C 41.394531 -131.890625 43.320312 -126.332031 47.171875 -122.03125 C 51.027344 -117.730469 55.773438 -114.460938 61.417969 -112.222656 C 67.0625 -109.980469 74.992188 -107.429688 85.207031 -104.5625 C 97.574219 -101.15625 107.519531 -97.796875 115.042969 -94.480469 C 122.570312 -91.167969 129.023438 -86.058594 134.398438 -79.160156 C 139.773438 -72.261719 142.460938 -62.898438 142.460938 -51.070312 C 142.460938 -41.933594 140.042969 -33.332031 135.203125 -25.265625 C 130.367188 -17.203125 123.199219 -10.664062 113.699219 -5.644531 C 104.203125 -0.628906 93.003906 1.882812 80.101562 1.882812 Z M 80.101562 1.882812 "/></g></g></g><g fill="#053262" fill-opacity="1"><g transform="translate(1133.519228, 325.983857)"><g><path d="M 151.871094 -187.351562 L 90.851562 -70.691406 L 90.851562 0 L 66.390625 0 L 66.390625 -70.691406 L 5.105469 -187.351562 L 32.253906 -187.351562 L 78.488281 -92.464844 L 124.722656 -187.351562 Z M 151.871094 -187.351562 "/></g></g></g><g fill="#053262" fill-opacity="1"><g transform="translate(637.320704, 594.374817)"><g><path d="M 198.289062 -158.101562 C 198.289062 -144.59375 195.1875 -132.25 188.988281 -121.066406 C 182.789062 -109.882812 173.269531 -100.859375 160.425781 -93.996094 C 147.582031 -87.132812 131.640625 -83.699219 112.597656 -83.699219 L 77.390625 -83.699219 L 77.390625 0 L 20.59375 0 L 20.59375 -233.164062 L 112.597656 -233.164062 C 131.195312 -233.164062 146.917969 -229.953125 159.761719 -223.53125 C 172.605469 -217.109375 182.234375 -208.253906 188.65625 -196.960938 C 195.078125 -185.667969 198.289062 -172.714844 198.289062 -158.101562 Z M 108.277344 -128.871094 C 119.128906 -128.871094 127.210938 -131.417969 132.523438 -136.511719 C 137.839844 -141.605469 140.496094 -148.800781 140.496094 -158.101562 C 140.496094 -167.398438 137.839844 -174.597656 132.523438 -179.6875 C 127.210938 -184.78125 119.128906 -187.328125 108.277344 -187.328125 L 77.390625 -187.328125 L 77.390625 -128.871094 Z M 108.277344 -128.871094 "/></g></g></g><g fill="#053262" fill-opacity="1"><g transform="translate(844.550905, 594.374817)"><g><path d="M 130.863281 2.324219 C 108.941406 2.324219 88.847656 -2.769531 70.582031 -12.953125 C 52.3125 -23.140625 37.808594 -37.367188 27.070312 -55.632812 C 16.332031 -73.902344 10.960938 -94.4375 10.960938 -117.246094 C 10.960938 -140.054688 16.332031 -160.535156 27.070312 -178.691406 C 37.808594 -196.851562 52.3125 -211.023438 70.582031 -221.207031 C 88.847656 -231.394531 108.941406 -236.484375 130.863281 -236.484375 C 152.785156 -236.484375 172.878906 -231.394531 191.148438 -221.207031 C 209.417969 -211.023438 223.808594 -196.851562 234.328125 -178.691406 C 244.84375 -160.535156 250.105469 -140.054688 250.105469 -117.246094 C 250.105469 -94.4375 244.789062 -73.902344 234.160156 -55.632812 C 223.53125 -37.367188 209.140625 -23.140625 190.980469 -12.953125 C 172.824219 -2.769531 152.785156 2.324219 130.863281 2.324219 Z M 130.863281 -49.488281 C 149.464844 -49.488281 164.355469 -55.6875 175.539062 -68.089844 C 186.71875 -80.488281 192.3125 -96.875 192.3125 -117.246094 C 192.3125 -137.839844 186.71875 -154.28125 175.539062 -166.570312 C 164.355469 -178.859375 149.464844 -185.003906 130.863281 -185.003906 C 112.042969 -185.003906 97.042969 -178.914062 85.859375 -166.734375 C 74.675781 -154.558594 69.085938 -138.0625 69.085938 -117.246094 C 69.085938 -96.652344 74.675781 -80.210938 85.859375 -67.921875 C 97.042969 -55.632812 112.042969 -49.488281 130.863281 -49.488281 Z M 130.863281 -49.488281 "/></g></g></g><g fill="#053262" fill-opacity="1"><g transform="translate(1105.581284, 594.374817)"><g><path d="M 104.957031 2.324219 C 87.90625 2.324219 72.628906 -0.441406 59.121094 -5.980469 C 45.613281 -11.515625 34.820312 -19.707031 26.738281 -30.558594 C 18.65625 -41.40625 14.394531 -54.472656 13.949219 -69.75 L 74.398438 -69.75 C 75.285156 -61.113281 78.273438 -54.527344 83.367188 -49.988281 C 88.460938 -45.449219 95.105469 -43.179688 103.296875 -43.179688 C 111.710938 -43.179688 118.355469 -45.117188 123.226562 -48.992188 C 128.097656 -52.867188 130.53125 -58.234375 130.53125 -65.101562 C 130.53125 -70.855469 128.59375 -75.617188 124.71875 -79.382812 C 120.84375 -83.144531 116.082031 -86.246094 110.4375 -88.683594 C 104.792969 -91.117188 96.765625 -93.886719 86.355469 -96.984375 C 71.300781 -101.636719 59.011719 -106.285156 49.488281 -110.9375 C 39.96875 -115.585938 31.773438 -122.449219 24.910156 -131.527344 C 18.046875 -140.605469 14.613281 -152.453125 14.613281 -167.066406 C 14.613281 -188.769531 22.476562 -205.761719 38.195312 -218.050781 C 53.917969 -230.339844 74.398438 -236.484375 99.644531 -236.484375 C 125.328125 -236.484375 146.03125 -230.339844 161.753906 -218.050781 C 177.476562 -205.761719 185.890625 -188.65625 186.996094 -166.734375 L 125.550781 -166.734375 C 125.105469 -174.265625 122.339844 -180.1875 117.246094 -184.503906 C 112.152344 -188.824219 105.621094 -190.980469 97.648438 -190.980469 C 90.785156 -190.980469 85.25 -189.15625 81.042969 -185.5 C 76.835938 -181.847656 74.730469 -176.589844 74.730469 -169.726562 C 74.730469 -162.195312 78.273438 -156.328125 85.359375 -152.121094 C 92.445312 -147.914062 103.519531 -143.375 118.574219 -138.503906 C 133.632812 -133.410156 145.867188 -128.539062 155.277344 -123.890625 C 164.6875 -119.238281 172.824219 -112.484375 179.6875 -103.628906 C 186.554688 -94.769531 189.984375 -83.367188 189.984375 -69.417969 C 189.984375 -56.132812 186.609375 -44.0625 179.855469 -33.214844 C 173.101562 -22.363281 163.304688 -13.730469 150.460938 -7.308594 C 137.617188 -0.886719 122.449219 2.324219 104.957031 2.324219 Z M 104.957031 2.324219 "/></g></g></g></svg>